<svg xmlns="http://www.w3.org/2000/svg" xmlns:xlink="http://www.w3.org/1999/xlink" width="297mm" height="210mm" version="1.1" viewBox="0 0 297 210">
  <defs>
    <clipPath id="map-clip">
      <rect x="4" y="4" width="289" height="187" fill="none" stroke="#050505" stroke-width=".2"/>
    </clipPath>
  </defs>
  <rect id="background" width="100%" height="100%" fill="#fff"/>
  <image id="map-data" x="2" y="2" width="293" height="191" clip-path="url(#map-clip)" stroke-width="1.81" preserveAspectRatio="none" xlink:href=""/>
  <rect id="map-border" x="4" y="4" width="289" height="187" fill="none" stop-color="#000000" stroke="#050505" stroke-width=".2"/>
  <g id="footer-info" font-family="'Noto Sans'" transform="translate(4.2 194.5)">
    <text id="map-title" x="-0.18373924" y="2.4583735" font-size="3.23px" style="line-height:1.25" xml:space="preserve">Map Title</text>
    <text x="-4.7482309" y="-195.50882" font-size="4.23px" font-weight="bold" letter-spacing="0px" word-spacing="0px" style="line-height:1.25;shape-inside:url(#rect863);white-space:pre" xml:space="preserve"/>
    <text transform="translate(-207 -230)" x="206.79874" y="235.76855" font-size="1.76px" letter-spacing="0px" stroke-width=".265" word-spacing="0px" style="inline-size:124.528;line-height:1.1;white-space:pre" xml:space="preserve"><tspan x="206.79874" y="235.76855"><tspan font-size="1.76px" stroke-width=".265">Map data is compiled from a variety of sources and hence its accuracy is variable. If you wish to make decisions based on this data you should consult </tspan></tspan><tspan x="206.79874" y="237.70884"><tspan font-size="1.76px" stroke-width=".265">with relevant authorities. Apart from any use permitted under the Copyright Act 1968, no part of the report may be copied without the permission of </tspan></tspan><tspan x="206.79874" y="239.64913"><tspan font-size="1.76px" stroke-width=".265">the General Manager, Land Tasmania, Department of Primary Industries, Parks, Water and Environment, GPO Box 44, Hobart 7001</tspan></tspan></text>
  </g>
  <g id="footer-logos" transform="translate(219.5 193.5)">
    <text x="-0.10573069" y="11.487411" font-family="'Noto Sans'" font-size="1.73px" letter-spacing="0px" stroke-width=".265" word-spacing="0px" style="line-height:1.25" xml:space="preserve"><tspan x="-0.10573069" y="11.487411" stroke-width=".265">Generated with data from www.thelist.tas.gov.au</tspan></text>
    <path d="m4.43 2.18-0.732 0.012-6e-3 2.17c-8e-3 2.66-9.1e-4 2.77 0.193 3.17 0.186 0.379 0.551 0.62 1.07 0.701 0.0683 0.0108 0.36 0.0208 0.649 0.0222l0.525 3e-3v-0.674l-0.581-8e-3c-0.511-7e-3 -0.595-0.0138-0.693-0.0525-0.156-0.0613-0.288-0.196-0.353-0.36l-0.0539-0.135-6e-3 -2.42zm7.05 0-0.725 0.012-0.01 1.15-1.07 0.0127c-1.01 0.0119-1.08 0.0155-1.25 0.0615-0.457 0.126-0.721 0.387-0.842 0.829-0.048 0.177-0.069 0.746-0.0337 0.916 0.0377 0.182 0.143 0.389 0.255 0.501 0.193 0.193 0.418 0.287 0.955 0.401 0.491 0.103 0.611 0.147 0.742 0.268 0.151 0.141 0.205 0.406 0.152 0.747-0.0481 0.309-0.16 0.426-0.453 0.473-0.0807 0.0131-0.469 0.0239-0.864 0.024l-0.717 2.2e-4v0.68l0.886-8e-3c0.961-9e-3 0.996-0.0131 1.28-0.145 0.155-0.0731 0.383-0.294 0.448-0.436 0.125-0.27 0.165-0.481 0.165-0.871 4.1e-4 -0.661-0.232-1.03-0.764-1.23-0.096-0.035-0.356-0.1-0.577-0.145-0.463-0.0938-0.591-0.142-0.7-0.262-0.0957-0.106-0.112-0.185-0.0985-0.484 9e-3 -0.195 0.0204-0.253 0.0725-0.36 0.122-0.25 0.213-0.266 1.46-0.257l0.96 6e-3 0.0119 1.52c0.0114 1.45 0.0142 1.53 0.0583 1.68 0.0754 0.257 0.165 0.416 0.325 0.578 0.312 0.316 0.649 0.404 1.55 0.404h0.48v-0.671l-0.548-0.0134c-0.763-0.0187-0.919-0.0609-1.04-0.281-0.0325-0.0597-0.0697-0.174-0.0828-0.255-0.0147-0.0908-0.0238-0.682-0.0239-1.56l-2.2e-4 -1.42 1.68-0.012v-0.677l-1.68-0.012v-0.587zm-4.71 0.025a0.384 0.384 0 0 0-0.384 0.384 0.384 0.384 0 0 0 0.384 0.384 0.384 0.384 0 0 0 0.384-0.384 0.384 0.384 0 0 0-0.384-0.384 0.384 0.384 0 0 0-1.3e-4 0zm-6.76 0.0891 6e-3 0.854c2e-3 0.274-0.0149 0.814 0.0687 0.948 0.0727 0.11 0.164 0.162 0.321 0.185 0.0626 9e-3 0.177 0.018 0.255 0.0195l0.141 3e-3v-0.222l-0.225-8e-3c-0.341-0.0118-0.326 0.0171-0.335-0.641l-7e-3 -0.53 0.199-3e-3c0.395-5e-3 0.356 6e-3 0.364-0.116l7e-3 -0.107h-0.567v-0.384h-0.114zm0.905 0v2.01h0.226v-1.42l0.164 9e-5c0.187 1.4e-4 0.315 0.0294 0.359 0.0827 0.0236 0.0284 0.0333 0.185 0.042 0.683l0.0113 0.646h0.226v-0.621c0-0.678-8e-3 -0.734-0.128-0.87-0.0957-0.109-0.188-0.132-0.452-0.114l-0.222 0.0153v-0.408h-0.113zm1.73 0.379c-0.157 0-0.212 0.01-0.299 0.0531-0.215 0.107-0.263 0.269-0.249 0.842 8e-3 0.337 0.0153 0.397 0.0567 0.476 0.0668 0.127 0.146 0.194 0.271 0.228 0.0604 0.0162 0.24 0.0297 0.407 0.0305l0.299 9.1e-4v-0.226h-0.329s-0.213 0.0128-0.313-0.0175c-0.0304-9e-3 -0.082-0.0486-0.082-0.0486-0.049-0.049-0.066-0.0874-0.066-0.149 0-0.0603 8e-3 -0.08 0.0303-0.0716 0.0166 6e-3 0.131 0.0184 0.254 0.0266 0.206 0.0138 0.232 0.0108 0.325-0.0374 0.162-0.0836 0.212-0.197 0.221-0.504 7e-3 -0.236 5e-3 -0.255-0.0561-0.373-0.0892-0.174-0.204-0.23-0.47-0.23zm0.0324 0.208c0.216 9e-4 0.272 0.0873 0.272 0.356 9e-5 0.199-0.0328 0.3-0.112 0.343-0.0239 0.0128-0.151 0.0232-0.282 0.0232h-0.239l9e-4 -0.209c2e-3 -0.404 0.0461-0.491 0.256-0.509 0.0376-3e-3 0.0717-5e-3 0.103-5e-3zm3.75 0.474v4.9h0.723v-4.9h-0.361zm7.36 4.18a0.384 0.384 0 0 0-0.384 0.384 0.384 0.384 0 0 0 0.384 0.384 0.384 0.384 0 0 0 0.384-0.384 0.384 0.384 0 0 0-0.384-0.384 0.384 0.384 0 0 0-2.2e-4 0zm0.981 0a0.384 0.384 0 0 0-0.384 0.384 0.384 0.384 0 0 0 0.384 0.384 0.384 0.384 0 0 0 0.384-0.384 0.384 0.384 0 0 0-0.384-0.384zm0.988 0a0.384 0.384 0 0 0-0.384 0.384 0.384 0.384 0 0 0 0.384 0.384 0.384 0.384 0 0 0 0.384-0.384 0.384 0.384 0 0 0-0.384-0.384 0.384 0.384 0 0 0-2.2e-4 0z" stop-color="#000000" style="font-variation-settings:normal"/>
    <g stroke-width=".265">
      <path d="m23.1 1.76c-0.0583 5.29e-4 -0.092 0.00265-0.092 0.00265-0.718 0.439-0.607 1.08-0.596 1.61 0.231-0.647 0.857-1.32 1.64-1.48-0.379-0.124-0.777-0.137-0.952-0.135zm4.13 0.56c-0.771 0.339-1.17 1-1.34 1.47 0.264 0.075 0.489 0.103 0.489 0.103s0.189-0.819 0.846-1.57zm-2.71 0.105c-0.309-0.00648-0.589 0.108-0.803 0.232-0.266 0.152-0.508 0.317-0.707 0.804 0 0 0.418-0.463 1.22-0.495 0.862-0.0364 1.06 0.165 1.06 0.165s-0.319-0.65-0.638-0.695c-0.0453-0.00616-0.0902-0.00942-0.134-0.0103zm-3.51 0.568c0.538 0.671 0.568 0.883 0.568 0.883s0.454-0.0898 0.859-0.0878c-0.467-0.396-0.647-0.516-1.43-0.795zm0.654 1.08s0.272 0.799 0.371 1.66c-0.448-0.883-1.25-1.27-1.25-1.27s-0.324 0.403-0.465 0.868c0.396 0.429 0.821 1.34 0.821 1.34s-0.411-0.386-0.842-0.65c-0.101 0.396-0.185 1.05-0.0196 1.87 0.823-0.887 1.71-1.13 3.4-0.868-0.131-1.06-0.986-2.44-0.986-2.44-0.688-0.253-1.03-0.506-1.03-0.506zm4.65 0.182c-0.176 0.045-0.583 0.356-0.583 0.356s-0.15 0.358-0.358 1.18c-0.182 0.726-0.308 1.4-0.308 1.4s1.3-0.0578 1.89-0.643c-0.264-0.433 0.0195-1.35 0.3-1.71-0.564 0.208-1.04 0.997-1.04 0.997s-0.206-0.939 0.0961-1.58zm-2.89 0.856-0.116 0.0217c-6e-3 0-0.021 0.013-0.015 0.015 0.27 0.133 0.51 0.343 0.754 0.651 0.0021 4e-3 0.011 0.00238 0.015-0.00159 0.0172-0.182-0.017-0.365-0.06-0.528l0.0041-0.00569c-0.0085-0.03-0.0431-0.0408-0.0667-0.0558l5.29e-4 -5.29e-4c-0.156-0.0707-0.339-0.103-0.517-0.0966zm1.89 0c-0.178-0.00601-0.36 0.0259-0.516 0.0966v5.29e-4c-0.0236 0.015-0.0576 0.0258-0.0661 0.0558l0.0036 0.00569c-0.0429 0.163-0.0771 0.345-0.0599 0.528 4e-3 4e-3 0.0129 0.00556 0.015 0.00159 0.244-0.309 0.484-0.518 0.754-0.651 6e-3 -0.00212-9e-3 -0.015-0.015-0.015zm1.84 1.67c-1.83 2.39-3.8 0.482-5.42 0.639-0.932 0.09-1.4 0.701-1.4 0.701s0.502-0.313 1.28-0.311c0.823 0.00643 1.25 0.476 2.31 0.772 1.98 0.551 3.13-0.643 3.22-1.8zm-3.16 0.36c0.156 0.165 0.0576 0.277 0.371 0.313 0.336 0.0407 0.253-0.124 0.463-0.229-0.411 0.0364-0.542 0.0192-0.834-0.0837z"/>
      <path d="m35.3 4.79v0.186h0.203v-0.186zm-7.45 0.00878v0.168h0.51v1.26h0.19v-1.26h0.51v-0.168zm1.53 0.326c-0.0648 0-0.129 0.00677-0.196 0.0176-0.0648 0.013-0.117 0.0239-0.151 0.0326v0.183h0.0088c0.0605-0.0238 0.121-0.0413 0.179-0.0543 0.0584-0.013 0.11-0.0191 0.158-0.0191 0.0389 0 0.0759 0.00447 0.113 0.00878 0.0367 0.00648 0.0666 0.0148 0.0925 0.03 0.0281 0.0151 0.0479 0.0366 0.063 0.0625 0.0151 0.0259 0.0212 0.0607 0.0212 0.102v0.0279c-0.104 0.00648-0.203 0.013-0.294 0.0238-0.0929 0.0108-0.171 0.0303-0.236 0.0584-0.0648 0.0303-0.115 0.0691-0.149 0.119-0.0346 0.0497-0.0517 0.115-0.0517 0.197 0 0.0994 0.0343 0.179 0.101 0.244 0.067 0.0627 0.147 0.0951 0.244 0.0951 0.0519 0 0.0975-0.00418 0.136-0.015s0.0731-0.0216 0.103-0.0367c0.0259-0.0108 0.052-0.026 0.0801-0.0455 0.0281-0.0194 0.0495-0.0347 0.0646-0.0455v0.115h0.18v-0.731c0-0.0692-0.011-0.125-0.0326-0.173-0.0216-0.0475-0.052-0.0845-0.093-0.115-0.0411-0.0281-0.0885-0.0496-0.145-0.0625-0.0562-0.013-0.121-0.0196-0.197-0.0196zm1.15 0c-0.0692 0-0.13 0.00855-0.186 0.0258-0.054 0.0173-0.0992 0.0416-0.136 0.0718-0.0367 0.0303-0.0649 0.0645-0.0822 0.103-0.0194 0.0389-0.0284 0.0824-0.0284 0.126 0 0.0692 0.0195 0.13 0.0584 0.177 0.0389 0.0497 0.106 0.0841 0.199 0.11 0.0346 0.0108 0.0711 0.0172 0.112 0.0258 0.0411 0.00648 0.0738 0.0132 0.0997 0.0196 0.0692 0.0151 0.117 0.0347 0.141 0.0563 0.0238 0.0216 0.0367 0.0519 0.0367 0.0951 0 0.0562-0.0218 0.095-0.0672 0.121-0.0454 0.0259-0.106 0.0388-0.186 0.0388-0.0648 0-0.131-0.0128-0.2-0.0388-0.0692-0.0238-0.134-0.0586-0.19-0.102h-0.0088v0.203c0.0454 0.0238 0.0994 0.0436 0.166 0.063 0.067 0.0194 0.138 0.0279 0.218 0.0279 0.14 0 0.251-0.0303 0.331-0.093 0.08-0.0627 0.121-0.143 0.121-0.24 0-0.0778-0.0214-0.14-0.0646-0.19-0.0454-0.0475-0.111-0.0798-0.195-0.0992-0.0281-0.00648-0.0623-0.0131-0.103-0.0217-0.0411-0.00865-0.0802-0.0151-0.113-0.0238-0.0584-0.013-0.104-0.0326-0.13-0.0543-0.0281-0.0216-0.0408-0.056-0.0408-0.0992 0-0.0497 0.0239-0.0867 0.0692-0.113 0.0454-0.0259 0.102-0.0388 0.166-0.0388 0.0648 0 0.129 0.0108 0.194 0.0346 0.067 0.0238 0.123 0.0517 0.168 0.0863h0.0088v-0.192c-0.0454-0.0216-0.0995-0.0412-0.164-0.0563-0.067-0.0151-0.129-0.0238-0.194-0.0238zm2.84 0c-0.0648 0-0.129 0.00677-0.196 0.0176-0.0648 0.013-0.117 0.0239-0.151 0.0326v0.183h0.0087c0.0605-0.0238 0.121-0.0413 0.179-0.0543 0.0584-0.013 0.11-0.0191 0.158-0.0191 0.0389 0 0.0759 0.00447 0.113 0.00878 0.0368 0.00648 0.0666 0.0148 0.0925 0.03 0.0281 0.0151 0.0479 0.0366 0.063 0.0625 0.0151 0.0259 0.0212 0.0607 0.0212 0.102v0.0279c-0.104 0.00648-0.203 0.013-0.294 0.0238-0.0929 0.0108-0.171 0.0303-0.236 0.0584-0.0648 0.0303-0.115 0.0691-0.149 0.119-0.0346 0.0497-0.0517 0.115-0.0517 0.197 0 0.0994 0.0343 0.179 0.101 0.244 0.067 0.0627 0.147 0.0951 0.244 0.0951 0.0519 0 0.097-0.00418 0.136-0.015s0.0736-0.0216 0.104-0.0367c0.0259-0.0108 0.052-0.026 0.0801-0.0455 0.0281-0.0194 0.0495-0.0347 0.0646-0.0455v0.115h0.18v-0.731c0-0.0692-0.0108-0.125-0.0326-0.173-0.0217-0.0475-0.052-0.0845-0.093-0.115-0.0411-0.0281-0.0885-0.0496-0.145-0.0625-0.0562-0.013-0.121-0.0196-0.197-0.0196zm1.3 0c-0.0648 0-0.126 0.0133-0.186 0.0393-0.0605 0.0281-0.118 0.0625-0.175 0.11v-0.119h-0.18v1.07h0.18v-0.799c0.0475-0.0367 0.0995-0.0692 0.153-0.093 0.0519-0.0238 0.103-0.0367 0.153-0.0367 0.0476 0 0.0866 0.00614 0.117 0.0191 0.0303 0.013 0.0541 0.0345 0.0693 0.0605 0.0151 0.0259 0.0259 0.0586 0.0325 0.102 0.0064 0.0432 0.0087 0.0888 0.0087 0.138v0.609h0.182v-0.696c0-0.13-0.0304-0.231-0.091-0.3-0.0605-0.0692-0.149-0.104-0.264-0.104zm1.49 0c-0.0648 0-0.129 0.00677-0.196 0.0176-0.067 0.013-0.119 0.0239-0.153 0.0326v0.183h0.0108c0.0605-0.0238 0.121-0.0413 0.179-0.0543 0.0584-0.013 0.11-0.0191 0.158-0.0191 0.0389 0 0.0759 0.00447 0.113 0.00878 0.0368 0.00648 0.0666 0.0148 0.0925 0.03 0.0281 0.0151 0.0479 0.0366 0.063 0.0625 0.0151 0.0259 0.0217 0.0607 0.0217 0.102v0.0279c-0.104 0.00648-0.203 0.013-0.294 0.0238-0.0929 0.0108-0.171 0.0303-0.236 0.0584-0.0648 0.0303-0.115 0.0691-0.149 0.119-0.0346 0.0497-0.0517 0.115-0.0517 0.197 0 0.0994 0.0348 0.179 0.102 0.244 0.067 0.0627 0.147 0.0951 0.244 0.0951 0.0519 0 0.0975-0.00418 0.136-0.015 0.0389-0.0108 0.0731-0.0216 0.103-0.0367 0.0259-0.0108 0.052-0.026 0.0801-0.0455 0.0281-0.0194 0.05-0.0347 0.0651-0.0455v0.115h0.179v-0.731c0-0.0692-0.0108-0.125-0.0326-0.173-0.0217-0.0475-0.0519-0.0845-0.093-0.115-0.0411-0.0281-0.0885-0.0496-0.145-0.0625-0.0562-0.013-0.121-0.0196-0.197-0.0196zm1.3 0c-0.0648 0-0.126 0.0133-0.186 0.0393-0.0605 0.0281-0.118 0.0625-0.175 0.11v-0.119h-0.18v1.07h0.18v-0.799c0.0475-0.0367 0.099-0.0692 0.153-0.093 0.0519-0.0238 0.104-0.0367 0.153-0.0367 0.0475 0 0.0865 0.00614 0.117 0.0191 0.0302 0.013 0.0541 0.0345 0.0692 0.0605 0.0151 0.0259 0.0262 0.0586 0.0325 0.102 0.0063 0.0432 0.0082 0.0888 0.0082 0.138v0.609h0.182v-0.696c0-0.13-0.0304-0.231-0.091-0.3-0.0605-0.0692-0.149-0.104-0.264-0.104zm-5.78 0.00212c-0.0648 0-0.123 0.0133-0.179 0.0393-0.0562 0.0281-0.112 0.0625-0.168 0.11v-0.119h-0.179v1.07h0.179v-0.799c0.0476-0.0367 0.097-0.0692 0.147-0.093 0.0476-0.0238 0.0976-0.0367 0.147-0.0367 0.0519 0 0.0908 0.00873 0.119 0.0217 0.0259 0.0151 0.0474 0.0344 0.0626 0.0625 0.013 0.0259 0.0214 0.0586 0.0259 0.102 0.0042 0.0411 0.0066 0.0863 0.0066 0.134v0.609h0.179v-0.685c0-0.0194 1.06e-4 -0.0384-0.0026-0.0579 0-0.0194-0.0026-0.0371-0.0045-0.0522 0.0497-0.0389 0.102-0.0712 0.151-0.0972 0.0497-0.0259 0.102-0.0388 0.151-0.0388 0.0519 0 0.0908 0.00656 0.119 0.0217 0.0259 0.0151 0.0474 0.0344 0.0625 0.0625 0.013 0.0238 0.0214 0.0581 0.0259 0.101 0.0042 0.0432 0.0066 0.089 0.0066 0.134v0.609h0.185v-0.693c0-0.128-0.028-0.227-0.0842-0.299-0.0562-0.0713-0.143-0.106-0.259-0.106-0.067 0-0.132 0.0133-0.192 0.0413-0.0605 0.0259-0.125 0.0713-0.199 0.132-0.0259-0.054-0.0645-0.0974-0.114-0.128-0.0519-0.0303-0.113-0.0455-0.186-0.0455zm3.63 0.0284v1.07h0.179v-1.07zm-5.65 0.508v0.298c-0.0432 0.0346-0.0927 0.0645-0.147 0.0904-0.0519 0.0238-0.11 0.0372-0.173 0.0372-0.0756 0-0.132-0.0173-0.169-0.0475-0.0367-0.0303-0.0558-0.078-0.0558-0.138 0-0.054 0.0151-0.0974 0.0475-0.128 0.0324-0.0324 0.0732-0.0541 0.125-0.0692 0.0432-0.013 0.104-0.0214 0.177-0.0279 0.0756-0.00648 0.14-0.0107 0.194-0.015zm3.99 0v0.298c-0.0432 0.0346-0.0927 0.0645-0.147 0.0904-0.0519 0.0238-0.11 0.0372-0.173 0.0372-0.0756 0-0.132-0.0173-0.168-0.0475-0.0368-0.0303-0.0558-0.078-0.0558-0.138 0-0.054 0.0151-0.0974 0.0476-0.128 0.0324-0.0324 0.0732-0.0541 0.125-0.0692 0.0432-0.013 0.104-0.0214 0.177-0.0279 0.0756-0.00648 0.14-0.0107 0.194-0.015zm2.79 0v0.298c-0.0454 0.0346-0.0933 0.0645-0.147 0.0904-0.0519 0.0238-0.11 0.0372-0.173 0.0372-0.0756 0-0.132-0.0173-0.169-0.0475-0.0368-0.0303-0.0558-0.078-0.0558-0.138 0-0.054 0.0151-0.0974 0.0475-0.128 0.0324-0.0324 0.0732-0.0541 0.125-0.0692 0.0432-0.013 0.104-0.0214 0.177-0.0279 0.0756-0.00648 0.141-0.0107 0.195-0.015z"/>
      <path d="m28.6 6.77c-0.233 0-0.415 0.0671-0.549 0.199-0.132 0.132-0.198 0.313-0.198 0.54 0 0.125 0.017 0.234 0.0537 0.327 0.0346 0.0929 0.0866 0.17 0.151 0.233 0.0648 0.0627 0.143 0.108 0.236 0.138 0.0908 0.0303 0.195 0.0455 0.305 0.0455 0.0864 0 0.175-0.0128 0.268-0.0388 0.0929-0.0259 0.177-0.0563 0.255-0.093v-0.616h-0.57v0.166h0.387v0.35c-0.0454 0.0194-0.0992 0.0346-0.16 0.0475-0.0605 0.0108-0.123 0.0176-0.184 0.0176-0.169 0-0.3-0.0519-0.397-0.153-0.0973-0.102-0.145-0.246-0.145-0.43 0-0.175 0.0476-0.316 0.141-0.418s0.218-0.153 0.378-0.153c0.0713 0 0.134 0.00616 0.19 0.0191 0.054 0.013 0.106 0.0302 0.149 0.0496 0.0346 0.0173 0.0733 0.0371 0.11 0.063 0.0389 0.0259 0.0668 0.0453 0.0863 0.0605h0.0176v-0.225c-0.0994-0.0475-0.19-0.0803-0.274-0.0997-0.0843-0.0194-0.166-0.03-0.249-0.03zm10.4 0.0775v0.307h-0.121v0.151h0.121v0.568c0 0.13 0.028 0.225 0.0842 0.283 0.0562 0.0584 0.141 0.0884 0.249 0.0884 0.0302-2.6e-6 0.067-0.00185 0.106-0.00828 0.0389-0.00431 0.0755-0.0131 0.11-0.0217h0.0026v-0.162h-0.0087c-0.0151 0.00648-0.0363 0.0131-0.0687 0.0217-0.0324 0.00865-0.0628 0.0129-0.093 0.0129-0.0497 0-0.0889-0.00677-0.113-0.0176-0.0259-0.013-0.0454-0.0299-0.0584-0.0558-0.0151-0.0281-0.0238-0.0565-0.0259-0.0889-0.0026-0.0324-0.0042-0.0756-0.0042-0.132v-0.488h0.372v-0.151h-0.372v-0.307zm-9.13 0.279c-0.151 0-0.273 0.0498-0.361 0.151-0.0886 0.102-0.134 0.237-0.134 0.412 0 0.175 0.0452 0.311 0.134 0.413 0.0886 0.102 0.21 0.151 0.361 0.151 0.149 0 0.27-0.0498 0.359-0.151 0.0886-0.102 0.134-0.238 0.134-0.413 0-0.173-0.0452-0.311-0.134-0.412-0.0886-0.102-0.21-0.151-0.359-0.151zm4.28 0.00212c-0.0648 0-0.126 0.0128-0.186 0.0388-0.0605 0.0259-0.119 0.0626-0.175 0.108v-0.119h-0.179v1.07h0.179v-0.8c0.0476-0.0367 0.0994-0.0692 0.153-0.093 0.0519-0.0238 0.104-0.0367 0.153-0.0367 0.0475 0 0.0865 0.00667 0.117 0.0196 0.0303 0.013 0.0541 0.0345 0.0692 0.0605 0.0151 0.0238 0.0257 0.0586 0.032 0.102 0.0063 0.0432 0.0087 0.0883 0.0087 0.138v0.61h0.182v-0.694c0-0.13-0.0299-0.231-0.0904-0.3-0.0605-0.0692-0.147-0.104-0.264-0.104zm1.18 0c-0.0648 0-0.123 0.0128-0.179 0.0388-0.0562 0.0259-0.113 0.0626-0.169 0.108v-0.119h-0.179v1.07h0.179v-0.8c0.0476-0.0367 0.0976-0.0692 0.147-0.093 0.0475-0.0238 0.097-0.0367 0.147-0.0367 0.0519 0 0.0908 0.00873 0.119 0.0217 0.0259 0.0151 0.0479 0.0344 0.063 0.0625 0.013 0.0259 0.0214 0.0586 0.0259 0.102 0.0042 0.0411 0.0064 0.0863 0.0064 0.134v0.61h0.179v-0.685c0-0.0194 1.06e-4 -0.0389-0.0026-0.0584 0-0.0194-0.0026-0.0365-0.0042-0.0517 0.0497-0.0411 0.102-0.0717 0.151-0.0977 0.0497-0.0238 0.101-0.0367 0.151-0.0367 0.0519 0 0.0908 0.00656 0.119 0.0217 0.0259 0.0151 0.0479 0.0344 0.063 0.0625 0.013 0.0238 0.0214 0.0586 0.0259 0.102 0.0042 0.0432 0.0061 0.0885 0.0061 0.134v0.61h0.184v-0.694c0-0.128-0.028-0.227-0.0842-0.298-0.0562-0.0713-0.143-0.106-0.259-0.106-0.067 0-0.132 0.0133-0.192 0.0413-0.0605 0.0259-0.125 0.0713-0.199 0.132-0.0238-0.054-0.0629-0.0974-0.113-0.128-0.0519-0.0303-0.112-0.0455-0.186-0.0455zm3.01 0c-0.0648 0-0.126 0.0128-0.186 0.0388-0.0605 0.0259-0.119 0.0626-0.175 0.108v-0.119h-0.179v1.07h0.179v-0.8c0.0475-0.0367 0.0994-0.0692 0.153-0.093 0.054-0.0238 0.104-0.0367 0.153-0.0367 0.0476 0 0.0866 0.00667 0.117 0.0196 0.0303 0.013 0.0541 0.0345 0.0692 0.0605 0.0151 0.0238 0.0262 0.0586 0.0326 0.102 0.0064 0.0432 0.0082 0.0883 0.0082 0.138v0.61h0.182v-0.694c0-0.13-0.0304-0.231-0.0909-0.3-0.0605-0.0692-0.149-0.104-0.264-0.104zm-6.25 0.00212c-0.156 0-0.281 0.0497-0.376 0.153-0.0951 0.104-0.143 0.242-0.143 0.417s0.0499 0.314 0.149 0.409c0.0994 0.0973 0.238 0.145 0.415 0.145 0.0692 0 0.136-0.00855 0.198-0.0258 0.0627-0.0173 0.126-0.0392 0.186-0.0651v-0.196h-0.0087c-0.0324 0.0281-0.0841 0.0582-0.158 0.0863-0.0735 0.0281-0.147 0.0434-0.22 0.0434-0.0562 0-0.106-0.00865-0.151-0.0238-0.0454-0.0151-0.0864-0.039-0.119-0.0692-0.0346-0.0324-0.0627-0.0712-0.0822-0.121-0.0196-0.0497-0.0305-0.108-0.0305-0.173h0.789v-0.093c0-0.156-0.039-0.274-0.117-0.359-0.0778-0.0843-0.188-0.128-0.333-0.128zm5.02 0c-0.156 0-0.281 0.0497-0.376 0.153-0.0951 0.104-0.143 0.242-0.143 0.417s0.0499 0.314 0.149 0.409c0.0994 0.0973 0.238 0.145 0.415 0.145 0.0692 0 0.136-0.00855 0.198-0.0258 0.0627-0.0173 0.126-0.0392 0.186-0.0651v-0.196h-0.0087c-0.0324 0.0281-0.0841 0.0582-0.158 0.0863-0.0735 0.0281-0.147 0.0434-0.22 0.0434-0.0562 0-0.106-0.00865-0.151-0.0238-0.0454-0.0151-0.0864-0.039-0.119-0.0692-0.0346-0.0324-0.0627-0.0712-0.0822-0.121-0.0196-0.0497-0.0305-0.108-0.0305-0.173h0.789v-0.093c0-0.156-0.039-0.274-0.117-0.359-0.0778-0.0843-0.188-0.128-0.333-0.128zm-6.67 0.0238 0.43 1.07h0.182l0.432-1.07h-0.188l-0.328 0.854-0.333-0.854zm2.34 0.00212v1.07h0.182v-0.761c0.0475-0.0389 0.097-0.0713 0.149-0.0951 0.0497-0.0238 0.104-0.0372 0.16-0.0372 0.0346 0 0.0624 0.00238 0.0884 0.00466 0.0259 0.00212 0.0521 0.00643 0.078 0.0129h0.0108v-0.184c-0.0281-0.00431-0.0479-0.00611-0.063-0.00825-0.0151-0.00212-0.0368-0.00265-0.0692-0.00265-0.0562 0-0.112 0.0134-0.166 0.0372-0.0562 0.0238-0.119 0.0626-0.19 0.121v-0.158zm-0.704 0.117c0.0951 0 0.166 0.0262 0.214 0.078 0.0472 0.0514 0.0704 0.124 0.0708 0.218h-0.613c0.0087-0.0843 0.041-0.156 0.0972-0.212 0.0583-0.0562 0.134-0.0842 0.232-0.0842zm5.02 0c0.0951 0 0.166 0.0262 0.214 0.078 0.0472 0.0514 0.0704 0.124 0.0708 0.218h-0.613c0.0087-0.0843 0.041-0.156 0.0972-0.212 0.0584-0.0562 0.134-0.0842 0.232-0.0842zm-7.23 0.00672c0.0972 0 0.173 0.0343 0.227 0.101 0.054 0.067 0.0822 0.171 0.0822 0.309 0 0.136-0.0281 0.238-0.0822 0.305-0.054 0.0692-0.13 0.104-0.225 0.104-0.0972 0-0.173-0.0347-0.227-0.104-0.054-0.0692-0.0822-0.171-0.0822-0.305 0-0.138 0.0256-0.242 0.0796-0.309 0.054-0.067 0.13-0.101 0.227-0.101z"/>
    </g>
    <path d="m48.6 1e-5 -0.224 0.588 0.0408 0.592 8.3e-4 0.471 0.175-0.0118 0.317-0.201 0.0601-0.415-0.136-0.881-0.234-0.143zm9.09 0.431-0.195 0.238-0.108 0.358 0.119 0.306 0.238 0.229 0.207 0.504 0.272 3e-3 0.209-0.0627-0.0532-0.318-0.134-0.561-0.518-0.631-0.0355-0.0656zm0.878 1.77-0.275 0.0786-0.306 0.0897-0.181 0.23 0.284 0.0541 0.344-0.0106 0.3 0.0972 0.119-0.175-0.185-0.204zm-7.82 0.289-0.137 0.172 0.275-0.0258zm-0.251 0.042-0.156 0.291 0.127 0.106zm7.87 0.243-0.339 0.173 0.253 0.0544zm-7.55 0.437 0.0784 0.272 0.034-0.16zm-0.466 0.0576-0.105 0.23 0.0493 0.327-0.154 0.293-0.0237 0.319 0.126 0.45 0.108 0.406 0.128 0.427 0.291 0.653 0.226 0.363 0.327 0.429 0.253 0.608 0.0508 0.267 0.112-0.138 0.121 0.338 0.264 0.316 0.0721 0.106-0.124 0.376-0.189-0.454-0.247-0.277-0.183-0.23 8e-3 0.216 0.0511 0.348 0.0377 0.288 0.108 0.278-0.0334 0.169 0.2 0.192 0.109 0.392 0.14 0.334 0.27 0.179 0.16 0.27 0.17 0.218 0.144 0.261 0.0808 0.213 0.186-0.097-0.0357-0.0797 0.0797-0.0667 0.0366 0.213 0.144 0.134 0.109-0.0334 0.239-5e-3 0.115 0.179-0.157 0.01-0.0995-0.106-0.0951 0.0323-0.175 0.01-0.165 0.0414 0.201 0.216 0.0495 0.341 0.201-0.118 0.165 0.0531 0.186-0.0316 0.315 0.0273 0.337-0.0446 0.0746 0.111 0.227 0.196 0.309-0.0197 0.186-0.0348-0.0435-0.133 0.0673-0.0928 0.0665-0.167 0.0156-0.0889-0.0302-0.0446 0.153-0.0384-0.02-0.249 0.143-0.0602-0.154-0.331-0.0511-0.235 0.0155 0.16 0.217-0.0525 0.025 0.147 0.15 0.173 0.189-0.316 0.0691-0.18 0.0298-0.32 0.175-0.292-0.122-0.26-0.112-0.122-0.0531-0.142 0.232 0.306 0.154 0.142 0.169 0.0897-0.0208 0.246-0.176-0.0695 0.223 0.133 0.133-0.126-0.0285-0.0619 0.137-0.385-0.363-0.145 0.13 0.041 0.15 4.2e-4 0.107 0.216 0.07 0.0469 0.214 0.0397 0.187 0.123 8e-3 0.0827 0.124 0.177-0.134 0.115-0.158-0.0827-0.0837-0.234-0.192 0.2 0.136 0.245 0.116 0.0302-0.0206 0.251 0.196 0.0468 0.124-0.0796-0.0273-0.2 0.21 0.282 0.12-0.214-0.084-0.166 0.0146-0.314-0.0269-0.309-0.15-0.0954-0.115 0.119 0.0285-0.154 0.208-0.397 2e-3 -0.307-0.0725-0.228 0.0952 0.0137 0.0947-0.313-0.0221-0.349-0.0399 0.027 0.189-0.413 0.298-0.327-0.0737-0.0872 0.0449-0.19 0.0832-0.146 0.028 0.214-0.0147 0.147 0.156 0.324-6e-3 0.225 0.109-0.0519-7e-3 -0.255-0.0932-0.347 0.0506-0.449-5e-3 -0.436 0.04-0.382-0.158-0.415 0.0577-0.156 0.145-0.473-0.137-7e-3 0.0857-0.0772-0.083-0.26-0.0481-0.38 0.19-0.18-0.272-0.432-0.435-0.28-0.17 0.0286-0.445 0.311-0.397 8.4e-4 -0.449 0.353-0.33-0.0637-0.33 0.103-0.494 0.0747-0.131 0.267 0.317 0.255-0.0159 0.132 0.233 0.299-0.0371 0.0482-0.223-0.275-0.156-0.328-0.139-0.0196-0.0308-0.0886-0.321-0.0616-0.178 0.228 0.0228 0.15-0.0928-0.144-0.408-4e-3 -0.0411 0.109-0.237-0.0908-0.285-0.0474-0.142-0.182-0.346-0.154-0.426-0.262-0.419-0.205-0.207-0.0511-0.29-0.119-0.0211-0.236-0.117-0.0598-0.221 0.223-0.209-0.0179-0.154-0.143-0.304-0.0672-0.236-0.082-0.0955-0.235zm8.03 5.06 0.143 0.093zm-0.413 0.856-0.113 0.3 0.0707 0.174 0.128-0.196zm-1.64 1.51 0.014 0.153-0.167 0.175 0.205 0.131-0.176 0.179-0.15 0.283-0.137 0.173-0.0831 0.0547 0.0857 0.153 0.131-0.177 0.027 0.179 0.235-0.182-0.0582-0.377 0.204-0.37-0.0977-0.341z" fill-rule="evenodd"/>
    <path d="m66.3 9.1v-4.4l-1.12 5.52z" stroke="#000" stroke-width=".265px"/>
    <path d="m66.3 9.1v-4.4l1.12 5.52z" fill="#fff" stroke="#000" stroke-width=".265px"/>
    <text x="65.360184" y="3.3160269" font-family="'Noto Sans'" font-size="2.5px" letter-spacing="0px" stroke-width=".377" word-spacing="0px" style="line-height:1.25" xml:space="preserve"><tspan x="65.360184" y="3.3160269" stroke-width=".377">N</tspan></text>
  </g>
</svg>
