<svg xmlns="http://www.w3.org/2000/svg" xmlns:xlink="http://www.w3.org/1999/xlink" width="297mm" height="210mm" version="1.1" viewBox="0 0 297 210">
 <defs>
  <clipPath id="map-clip">
   <rect x="4" y="4" width="289" height="188" fill="none" stop-color="#000000" stroke="#050505" stroke-width=".2"/>
  </clipPath>
 </defs>
 <rect id="background" x="0" y="0" width="100%" height="100%" fill="#fff"/>
 <image id="map-data" x="2" y="2" width="293" height="192" clip-path="url(#map-clip)" stroke-width="1.8102" xlink:href="" preserveAspectRatio="none"/>
 <rect id="map-border" x="4" y="4" width="289" height="188" fill="none" stop-color="#000000" stroke="#050505" stroke-width=".2"/>
 <text id="map-title" x="4.5644917" y="197.96719" font-family="'Noto Sans'" font-size="3.2347px" style="line-height:1.25" xml:space="preserve">Map Title</text>
 <text font-family="'Noto Sans'" font-size="4.2333px" font-weight="bold" letter-spacing="0px" word-spacing="0px" style="line-height:1.25;shape-inside:url(#rect863);white-space:pre" xml:space="preserve"/>
 <text transform="translate(-202.07 -34.237)" x="206.79874" y="235.76855" font-family="'Noto Sans'" font-size="1.7639px" letter-spacing="0px" stroke-width=".26458" word-spacing="0px" style="inline-size:124.528;line-height:1.1;white-space:pre" xml:space="preserve"><tspan x="206.79874" y="235.76855"><tspan font-size="1.7639px" stroke-width=".26458">Map data is compiled from a variety of sources and hence its accuracy is variable. If you wish to make decisions based on this data you should consult </tspan></tspan><tspan x="206.79874" y="237.70883"><tspan font-size="1.7639px" stroke-width=".26458">with relevant authorities. Apart from any use permitted under the Copyright Act 1968, no part of the report may be copied without the permission of </tspan></tspan><tspan x="206.79874" y="239.64911"><tspan font-size="1.7639px" stroke-width=".26458">the General Manager, Land Tasmania, Department of Primary Industries, Parks, Water and Environment, GPO Box 44, Hobart 7001</tspan></tspan></text>
 <g transform="matrix(.59145 0 0 .59145 121.79 83.172)">
  <g transform="translate(-.17083)" stroke="#000" stroke-width=".44735px">
   <path d="m277.43 203.41v-7.4448l-1.8906 9.3354z"/>
   <path d="m277.43 203.41v-7.4448l1.8906 9.3354z" fill="#fff"/>
  </g>
  <text x="275.65652" y="193.62787" font-family="'Noto Sans'" font-size="4.2293px" letter-spacing="0px" stroke-width=".63792" word-spacing="0px" style="line-height:1.25" xml:space="preserve"><tspan x="275.65652" y="193.62787" stroke-width=".63792">N</tspan></text>
 </g>
 <g transform="translate(-14.053)">
  <text x="233.41417" y="205.8674" font-family="'Noto Sans'" font-size="1.7333px" letter-spacing="0px" stroke-width=".26458" word-spacing="0px" style="line-height:1.25" xml:space="preserve"><tspan x="233.41417" y="205.8674" stroke-width=".26458">Generated with data from www.thelist.tas.gov.au</tspan></text>
  <path d="m237.95 196.56-0.73242 0.012-6e-3 2.1675c-8e-3 2.6584-9.1e-4 2.7734 0.19271 3.169 0.18585 0.37948 0.55127 0.61951 1.067 0.70085 0.0683 0.0108 0.36041 0.0208 0.64913 0.0222l0.52494 3e-3v-0.674l-0.58138-8e-3c-0.51057-7e-3 -0.59505-0.0138-0.69344-0.0525-0.15605-0.0613-0.28805-0.1959-0.35337-0.36015l-0.0539-0.13546-6e-3 -2.4221zm7.0458 0-0.72479 0.012-0.01 1.1515-1.0725 0.0127c-1.0081 0.0119-1.083 0.0155-1.2489 0.0615-0.45672 0.12645-0.72144 0.38718-0.84162 0.82891-0.048 0.17667-0.069 0.74649-0.0337 0.91648 0.0377 0.18181 0.14315 0.3887 0.25502 0.50056 0.19337 0.19338 0.41759 0.28746 0.95477 0.40055 0.49134 0.10343 0.61137 0.14673 0.74159 0.26771 0.15124 0.14051 0.20527 0.40609 0.15209 0.74738-0.0481 0.30892-0.1601 0.42585-0.45337 0.47343-0.0807 0.0131-0.46929 0.0239-0.86357 0.024l-0.71686 2.2e-4v0.68022l0.88619-8e-3c0.96056-9e-3 0.99628-0.0131 1.2774-0.14548 0.15527-0.0731 0.38261-0.29431 0.44822-0.43609 0.12487-0.26983 0.16485-0.48088 0.1651-0.87128 4.1e-4 -0.66083-0.23201-1.0344-0.76439-1.2287-0.096-0.035-0.35567-0.10038-0.57716-0.14526-0.46298-0.0938-0.5914-0.14192-0.70014-0.26229-0.0957-0.10593-0.11176-0.18481-0.0985-0.48363 9e-3 -0.19522 0.0204-0.25327 0.0725-0.35984 0.1221-0.24957 0.21274-0.26556 1.4582-0.25692l0.95957 6e-3 0.0119 1.524c0.0114 1.4516 0.0142 1.5315 0.0583 1.6821 0.0754 0.25707 0.16485 0.41642 0.32461 0.57826 0.31204 0.31611 0.6494 0.40389 1.5519 0.40389h0.4804v-0.67105l-0.54752-0.0134c-0.76327-0.0187-0.91933-0.0609-1.039-0.28081-0.0325-0.0597-0.0697-0.17424-0.0828-0.25458-0.0147-0.0908-0.0238-0.68221-0.0239-1.5626l-2.2e-4 -1.4165 1.6821-0.012v-0.67735l-1.6821-0.012v-0.58735zm-4.7125 0.025a0.38379 0.38379 0 0 0-0.38365 0.38379 0.38379 0.38379 0 0 0 0.38378 0.38377 0.38379 0.38379 0 0 0 0.38379-0.38377 0.38379 0.38379 0 0 0-0.38379-0.38379 0.38379 0.38379 0 0 0-1.3e-4 0zm-6.7592 0.0891 6e-3 0.854c2e-3 0.27443-0.0149 0.81417 0.0687 0.94767 0.0727 0.10978 0.16362 0.16232 0.32095 0.18543 0.0626 9e-3 0.17727 0.018 0.25488 0.0195l0.14112 3e-3v-0.22155l-0.22521-8e-3c-0.34139-0.0118-0.32631 0.0171-0.33475-0.64053l-7e-3 -0.53001 0.19875-3e-3c0.3946-5e-3 0.3558 6e-3 0.36363-0.11562l7e-3 -0.10725h-0.56694v-0.38383h-0.1139zm0.90516 0v2.0095h0.22578v-1.4224l0.1637 9e-5c0.18747 1.4e-4 0.31451 0.0294 0.35877 0.0827 0.0236 0.0284 0.0333 0.18499 0.042 0.68264l0.0113 0.64569h0.22578v-0.6209c0-0.6777-8e-3 -0.73377-0.12771-0.86984-0.0957-0.10897-0.18834-0.13239-0.45174-0.11426l-0.22207 0.0153v-0.40848h-0.1129zm1.7272 0.37929c-0.15665 0-0.2124 0.01-0.29942 0.0531-0.21517 0.10676-0.2632 0.26893-0.24938 0.84182 8e-3 0.33663 0.0153 0.3967 0.0567 0.4756 0.0668 0.12725 0.14638 0.19399 0.2713 0.22759 0.0604 0.0162 0.23955 0.0297 0.40706 0.0305l0.29916 9.1e-4v-0.22578h-0.3291s-0.21306 0.0128-0.31305-0.0175c-0.0304-9e-3 -0.082-0.0486-0.082-0.0486-0.049-0.049-0.066-0.0874-0.066-0.14918 0-0.0603 8e-3 -0.08 0.0303-0.0716 0.0166 6e-3 0.131 0.0184 0.25401 0.0266 0.20591 0.0138 0.23172 0.0108 0.32526-0.0374 0.16213-0.0836 0.21198-0.19712 0.22137-0.50395 7e-3 -0.23556 5e-3 -0.25476-0.0561-0.37255-0.0892-0.17395-0.2042-0.23032-0.47008-0.23032zm0.0324 0.20797c0.21579 9e-4 0.27216 0.0873 0.27231 0.35648 9e-5 0.19924-0.0328 0.30044-0.11157 0.34256-0.0239 0.0128-0.15076 0.0232-0.28197 0.0232h-0.23856l9e-4 -0.20885c2e-3 -0.40357 0.0461-0.49133 0.2563-0.50876 0.0376-3e-3 0.0717-5e-3 0.10253-5e-3zm3.7494 0.47392v4.8995h0.72251v-4.8995h-0.36126zm7.3637 4.1812a0.38379 0.38379 0 0 0-0.38365 0.38379 0.38379 0.38379 0 0 0 0.38378 0.38378 0.38379 0.38379 0 0 0 0.38379-0.38378 0.38379 0.38379 0 0 0-0.38379-0.38379 0.38379 0.38379 0 0 0-2.2e-4 0zm0.9806 0a0.38379 0.38379 0 0 0-0.38369 0.38379 0.38379 0.38379 0 0 0 0.38378 0.38378 0.38379 0.38379 0 0 0 0.38379-0.38378 0.38379 0.38379 0 0 0-0.38379-0.38379zm0.98798 0a0.38379 0.38379 0 0 0-0.38365 0.38379 0.38379 0.38379 0 0 0 0.38378 0.38378 0.38379 0.38379 0 0 0 0.38379-0.38378 0.38379 0.38379 0 0 0-0.38379-0.38379 0.38379 0.38379 0 0 0-2.2e-4 0z" stop-color="#000000" style="font-variation-settings:normal"/>
  <g transform="translate(.38832 -22.094)">
   <path transform="matrix(.26458 0 0 .26458 -.38832 22.094)" d="m969.86 741.33c-0.22046 2e-3 -0.34765 0.01-0.34765 0.01-2.7134 1.6604-2.2924 4.0915-2.252 6.084 0.87477-2.4461 3.2409-4.9988 6.1973-5.582-1.4336-0.46788-2.9363-0.5167-3.5977-0.51172zm15.602 2.1152c-2.9159 1.2798-4.407 3.7828-5.0469 5.5566 0.99628 0.28346 1.8477 0.38867 1.8477 0.38867s0.71259-3.0942 3.1992-5.9453zm-10.26 0.39844c-1.1684-0.0245-2.2253 0.40724-3.0332 0.875-1.0044 0.57509-1.9186 1.1985-2.6719 3.0371 0 0 1.5795-1.7496 4.625-1.8711 3.2561-0.13757 4 0.62305 4 0.62305s-1.2053-2.4549-2.4121-2.625c-0.17111-0.0233-0.3409-0.0356-0.50781-0.0391zm-13.262 2.1465c2.033 2.5352 2.1465 3.3359 2.1465 3.3359s1.7172-0.33959 3.248-0.33203c-1.7657-1.4984-2.4462-1.9509-5.3945-3.0039zm2.4707 4.0977s1.0277 3.0215 1.4004 6.2695c-1.6928-3.3371-4.7383-4.8125-4.7383-4.8125s-1.2232 1.5236-1.7578 3.2812c1.4984 1.6199 3.1016 5.0469 3.1016 5.0469s-1.5536-1.4588-3.1816-2.4551c-0.3806 1.4984-0.69791 3.9536-0.0742 7.0801 3.1103-3.3533 6.4486-4.2532 12.855-3.2812-0.4941-4.0013-3.7266-9.2168-3.7266-9.2168-2.6-0.95577-3.8789-1.9121-3.8789-1.9121zm17.566 0.68945c-0.66418 0.17008-2.2031 1.3438-2.2031 1.3438s-0.56587 1.352-1.3516 4.4785c-0.68848 2.7458-1.166 5.2734-1.166 5.2734s4.9316-0.21859 7.1348-2.4297c-0.99624-1.6362 0.0737-5.12 1.1348-6.4727-2.1302 0.78569-3.9121 3.7676-3.9121 3.7676s-0.77867-3.5472 0.36328-5.9609zm-10.941 3.2363-0.4375 0.082c-0.0227 0-0.0793 0.0491-0.0566 0.0566 1.0206 0.50219 1.9282 1.2946 2.8516 2.4609 8e-3 0.0151 0.0415 9e-3 0.0566-6e-3 0.065-0.68848-0.0644-1.3785-0.22657-1.9941l0.0156-0.0215c-0.0321-0.11338-0.16276-0.15424-0.25195-0.21093l2e-3 -2e-3c-0.59131-0.26721-1.2809-0.38791-1.9531-0.36523zm7.1504 0c-0.67226-0.0227-1.3599 0.098-1.9512 0.36523v2e-3c-0.0892 0.0567-0.21787 0.0975-0.25 0.21093l0.0137 0.0215c-0.16214 0.61561-0.29157 1.3057-0.22656 1.9941 0.0151 0.0151 0.0487 0.021 0.0566 6e-3 0.92338-1.1664 1.831-1.9588 2.8516-2.4609 0.0227-8e-3 -0.034-0.0566-0.0566-0.0566zm6.9512 6.3047c-6.9334 9.015-14.378 1.8228-20.469 2.4141-3.5234 0.34019-5.2891 2.6484-5.2891 2.6484s1.8957-1.1833 4.8359-1.1758c3.1103 0.0243 4.7231 1.7983 8.7324 2.916 7.4679 2.0816 11.817-2.4289 12.189-6.8027zm-11.947 1.3594c0.59127 0.6237 0.21781 1.046 1.4004 1.1836 1.2717 0.15391 0.95622-0.47029 1.75-0.86718-1.5552 0.13761-2.0488 0.0724-3.1504-0.31641z"/>
   <g transform="matrix(.081681 0 0 .081681 246.71 201.43)">
    <path transform="matrix(3.2392 0 0 3.2392 -3025.2 -2195.6)" d="m1016 752.8v0.70312h0.7676v-0.70312zm-28.146 0.0332v0.63672h1.9277v4.7539h0.71875v-4.7539h1.9277v-0.63672zm5.7656 1.2324c-0.24504 0-0.48897 0.0256-0.74218 0.0664-0.24505 0.049-0.44158 0.0904-0.57227 0.12305v0.69336h0.0332c0.22871-0.0899 0.45719-0.15607 0.67773-0.20508 0.22054-0.049 0.416-0.0723 0.5957-0.0723 0.14703 0 0.28692 0.0169 0.42578 0.0332 0.13886 0.0245 0.2516 0.0561 0.34961 0.11329 0.10619 0.0572 0.18111 0.13831 0.23828 0.23632 0.0572 0.098 0.0801 0.22957 0.0801 0.38477v0.10547c-0.39207 0.0245-0.76631 0.049-1.1094 0.0898-0.35123 0.0408-0.64558 0.11452-0.89063 0.22071-0.24504 0.11435-0.43376 0.26135-0.56445 0.44921-0.13069 0.18787-0.19531 0.43375-0.19531 0.74415 0 0.37573 0.1296 0.67683 0.38281 0.92187 0.25321 0.23688 0.55626 0.35937 0.92383 0.35937 0.19603 0 0.3686-0.0158 0.51562-0.0566 0.14703-0.0408 0.27627-0.0815 0.39063-0.13867 0.098-0.0408 0.19655-0.0984 0.30273-0.17187 0.10619-0.0735 0.18696-0.13104 0.24414-0.17188v0.4336h0.67969v-2.7617c0-0.26138-0.0414-0.47265-0.12305-0.65235-0.0817-0.17969-0.19636-0.31923-0.35156-0.43359-0.15519-0.10619-0.3345-0.18732-0.54687-0.23633-0.21238-0.049-0.45826-0.0742-0.74415-0.0742zm4.3301 0c-0.26138 0-0.49075 0.0323-0.70312 0.0977-0.20421 0.0653-0.37482 0.15713-0.51367 0.27148-0.13886 0.11436-0.2452 0.2436-0.31055 0.39063-0.0735 0.14703-0.10742 0.31125-0.10742 0.47461 0 0.26138 0.0737 0.49022 0.2207 0.66992 0.14703 0.18787 0.40072 0.318 0.75195 0.41602 0.1307 0.0408 0.26864 0.065 0.42383 0.0977 0.15519 0.0245 0.27894 0.0497 0.37696 0.0742 0.26138 0.0572 0.4414 0.13121 0.53124 0.21289 0.0898 0.0817 0.13868 0.19601 0.13868 0.35938 0 0.21237-0.0824 0.35901-0.25391 0.45703-0.17153 0.098-0.4009 0.14648-0.70312 0.14648-0.24505 0-0.49644-0.0485-0.75782-0.14648-0.26138-0.0899-0.50637-0.22141-0.71875-0.38477h-0.0332v0.76758c0.17153 0.0898 0.37569 0.16477 0.62891 0.23828 0.25321 0.0735 0.52199 0.10547 0.82421 0.10547 0.53093 0 0.94779-0.11469 1.25-0.35156 0.30223-0.23688 0.45704-0.53869 0.45704-0.90625 0-0.29406-0.0808-0.53089-0.24414-0.71875-0.17153-0.1797-0.41777-0.30149-0.73633-0.375-0.10619-0.0245-0.23543-0.0494-0.39063-0.082-0.15519-0.0327-0.30326-0.0572-0.42578-0.0899-0.22054-0.049-0.39222-0.1234-0.49023-0.20508-0.10619-0.0817-0.1543-0.21163-0.1543-0.375 0-0.18786 0.0902-0.32776 0.26172-0.42578 0.17153-0.098 0.38386-0.14648 0.62891-0.14648 0.24504 0 0.48933 0.041 0.73437 0.13086 0.25321 0.0899 0.46519 0.19548 0.63672 0.32617h0.0332v-0.72656c-0.17153-0.0817-0.37605-0.15572-0.62109-0.21289-0.25321-0.0572-0.48933-0.0899-0.73438-0.0899zm10.74 0c-0.245 0-0.4889 0.0256-0.7421 0.0664-0.2451 0.049-0.4416 0.0904-0.5723 0.12305v0.69336h0.033c0.2287-0.0899 0.4572-0.15607 0.6777-0.20508 0.2206-0.049 0.416-0.0723 0.5957-0.0723 0.1471 0 0.2869 0.0169 0.4258 0.0332 0.1389 0.0245 0.2516 0.0561 0.3496 0.11329 0.1062 0.0572 0.1811 0.13831 0.2383 0.23632 0.057 0.098 0.08 0.22957 0.08 0.38477v0.10547c-0.3921 0.0245-0.7663 0.049-1.1094 0.0898-0.3512 0.0408-0.6456 0.11452-0.8906 0.22071-0.2451 0.11435-0.4338 0.26135-0.5645 0.44921-0.1307 0.18787-0.1953 0.43375-0.1953 0.74415 0 0.37573 0.1296 0.67683 0.3828 0.92187 0.2532 0.23688 0.5563 0.35937 0.9239 0.35937 0.196 0 0.3666-0.0158 0.5136-0.0566s0.2782-0.0815 0.3926-0.13867c0.098-0.0408 0.1966-0.0984 0.3027-0.17187 0.1062-0.0735 0.187-0.13104 0.2442-0.17188v0.4336h0.6797v-2.7617c0-0.26138-0.041-0.47265-0.1231-0.65235-0.082-0.17969-0.1964-0.31923-0.3515-0.43359-0.1552-0.10619-0.3345-0.18732-0.5469-0.23633-0.2124-0.049-0.4583-0.0742-0.7442-0.0742zm4.9258 0c-0.245 0-0.4744 0.0504-0.7031 0.14844-0.2287 0.10618-0.4478 0.23632-0.6602 0.41602v-0.44922h-0.6796v4.043h0.6796v-3.0215c0.1797-0.13886 0.3759-0.26171 0.5801-0.35156 0.1961-0.0898 0.3903-0.13867 0.5781-0.13867 0.1797 0 0.3271 0.0232 0.4414 0.0723 0.1144 0.049 0.2046 0.1305 0.2618 0.22852 0.057 0.098 0.098 0.2214 0.123 0.38476 0.024 0.16337 0.033 0.33558 0.033 0.52344v2.3027h0.6878v-2.6309c0-0.49009-0.1151-0.87339-0.3438-1.1348s-0.5632-0.39258-0.9961-0.39258zm5.6192 0c-0.2451 0-0.489 0.0256-0.7422 0.0664-0.2532 0.049-0.4494 0.0904-0.5801 0.12305v0.69336h0.041c0.2287-0.0899 0.4572-0.15607 0.6777-0.20508 0.2206-0.049 0.416-0.0723 0.5957-0.0723 0.1471 0 0.287 0.0169 0.4258 0.0332 0.1389 0.0245 0.2516 0.0561 0.3496 0.11329 0.1062 0.0572 0.1811 0.13831 0.2383 0.23632 0.057 0.098 0.082 0.22957 0.082 0.38477v0.10547c-0.3921 0.0245-0.7683 0.049-1.1114 0.0898-0.3512 0.0408-0.6456 0.11452-0.8906 0.22071-0.245 0.11435-0.4338 0.26135-0.5645 0.44921-0.1306 0.18787-0.1953 0.43375-0.1953 0.74415 0 0.37573 0.1316 0.67683 0.3848 0.92187 0.2532 0.23688 0.5543 0.35937 0.9219 0.35937 0.196 0 0.3686-0.0158 0.5156-0.0566s0.2763-0.0815 0.3906-0.13867c0.098-0.0408 0.1966-0.0984 0.3028-0.17187 0.1061-0.0735 0.1889-0.13104 0.2461-0.17188v0.4336h0.6777v-2.7617c0-0.26138-0.041-0.47265-0.1231-0.65235-0.082-0.17969-0.1963-0.31923-0.3515-0.43359-0.1552-0.10619-0.3345-0.18732-0.5469-0.23633-0.2124-0.049-0.4583-0.0742-0.7441-0.0742zm4.9179 0c-0.245 0-0.4744 0.0504-0.7031 0.14844-0.2287 0.10618-0.4478 0.23632-0.6602 0.41602v-0.44922h-0.6796v4.043h0.6796v-3.0215c0.1797-0.13886 0.374-0.26171 0.5782-0.35156 0.196-0.0898 0.3922-0.13867 0.5801-0.13867 0.1796 0 0.327 0.0232 0.4414 0.0723 0.1143 0.049 0.2045 0.1305 0.2617 0.22852 0.057 0.098 0.099 0.2214 0.123 0.38476 0.024 0.16337 0.031 0.33558 0.031 0.52344v2.3027h0.6897v-2.6309c0-0.49009-0.1151-0.87339-0.3438-1.1348s-0.5632-0.39258-0.9961-0.39258zm-21.834 8e-3c-0.245 0-0.4653 0.0504-0.6777 0.14843-0.2124 0.10619-0.4243 0.23632-0.6367 0.41602v-0.44922h-0.6777v4.043h0.6777v-3.0215c0.1797-0.13885 0.3668-0.26171 0.5547-0.35156 0.1797-0.0899 0.3688-0.13867 0.5566-0.13867 0.1961 0 0.3431 0.033 0.4492 0.082 0.098 0.0572 0.1792 0.13014 0.2364 0.23633 0.049 0.098 0.081 0.2214 0.098 0.38477 0.016 0.15519 0.025 0.32615 0.025 0.50585v2.3027h0.6777v-2.5898c0-0.0735 4e-4 -0.14523-0.01-0.21874 0-0.0735-0.01-0.14009-0.017-0.19727 0.1878-0.14703 0.3844-0.26917 0.5722-0.36719 0.1879-0.098 0.3844-0.14648 0.5723-0.14648 0.196 0 0.343 0.0248 0.4492 0.082 0.098 0.0572 0.1792 0.13014 0.2363 0.23633 0.049 0.0898 0.081 0.21945 0.098 0.38281 0.016 0.16336 0.025 0.33628 0.025 0.50781v2.3027h0.7007v-2.6211c0-0.48192-0.106-0.85935-0.3184-1.1289s-0.5394-0.40039-0.9805-0.40039c-0.2532 0-0.4978 0.0501-0.7265 0.15625-0.2287 0.098-0.4743 0.26934-0.752 0.49804-0.098-0.2042-0.2438-0.36806-0.4316-0.48242-0.1961-0.11435-0.4254-0.17187-0.7032-0.17187zm13.73 0.10742v4.043h0.6777v-4.043zm-21.344 1.9199v1.127c-0.16336 0.13069-0.35048 0.24378-0.55468 0.3418-0.19604 0.0899-0.41547 0.14062-0.65235 0.14062-0.28589 0-0.49981-0.0653-0.63867-0.17968-0.13886-0.11436-0.21094-0.29473-0.21094-0.52344 0-0.2042 0.0572-0.36807 0.17969-0.48242 0.12252-0.12252 0.27662-0.20454 0.47266-0.26172 0.16336-0.049 0.3922-0.081 0.66992-0.10547 0.28588-0.0245 0.53017-0.0403 0.73437-0.0566zm15.07 0v1.127c-0.1634 0.13069-0.3505 0.24378-0.5547 0.3418-0.196 0.0899-0.4174 0.14062-0.6543 0.14062-0.2859 0-0.4979-0.0653-0.6367-0.17968-0.1389-0.11436-0.211-0.29473-0.211-0.52344 0-0.2042 0.057-0.36807 0.1797-0.48242 0.1225-0.12252 0.2766-0.20454 0.4727-0.26172 0.1633-0.049 0.3922-0.081 0.6699-0.10547 0.2859-0.0245 0.5302-0.0403 0.7344-0.0566zm10.547 0v1.127c-0.1716 0.13069-0.3525 0.24378-0.5567 0.3418-0.196 0.0899-0.4155 0.14062-0.6523 0.14062-0.2859 0-0.4998-0.0653-0.6387-0.17968-0.1389-0.11436-0.2109-0.29473-0.2109-0.52344 0-0.2042 0.057-0.36807 0.1796-0.48242 0.1226-0.12252 0.2767-0.20454 0.4727-0.26172 0.1634-0.049 0.3922-0.081 0.6699-0.10547 0.2859-0.0245 0.5321-0.0403 0.7364-0.0566z"/>
    <path transform="matrix(3.2392 0 0 3.2392 -3025.2 -2195.6)" d="m990.7 760.28c-0.88216 0-1.5698 0.2537-2.0762 0.75195-0.49826 0.49826-0.75 1.1834-0.75 2.041 0 0.47375 0.0643 0.88315 0.20312 1.2344 0.13069 0.35123 0.32723 0.64399 0.57227 0.88086 0.24504 0.23688 0.53939 0.40909 0.89063 0.52344 0.34306 0.11435 0.73577 0.17188 1.1523 0.17188 0.32673 0 0.66049-0.0485 1.0117-0.14649 0.35123-0.098 0.67079-0.2127 0.96484-0.35156v-2.3281h-2.1562v0.62891h1.4609v1.3223c-0.17153 0.0735-0.37481 0.13067-0.60352 0.17968-0.22871 0.0408-0.4666 0.0664-0.69531 0.0664-0.63711 0-1.1344-0.19618-1.502-0.58008s-0.54883-0.93071-0.54883-1.625c0-0.66162 0.18002-1.1942 0.53125-1.5781 0.35123-0.38391 0.82524-0.57813 1.4297-0.57813 0.26954 0 0.50637 0.0233 0.71875 0.0723 0.2042 0.049 0.40109 0.11398 0.56445 0.1875 0.13069 0.0653 0.27716 0.14026 0.41602 0.23828 0.14702 0.098 0.25266 0.17134 0.32617 0.22851h0.0664v-0.84961c-0.37573-0.1797-0.71855-0.30343-1.0371-0.37695-0.31855-0.0735-0.62906-0.11328-0.93945-0.11328zm39.158 0.29297v1.1602h-0.459v0.57226h0.459v2.1484c0 0.49009 0.106 0.84977 0.3183 1.0703 0.2124 0.22054 0.5311 0.33399 0.9395 0.33399 0.1143-1e-5 0.2534-7e-3 0.4004-0.0313 0.147-0.0163 0.2853-0.0494 0.416-0.082h0.01v-0.61328h-0.033c-0.057 0.0245-0.1372 0.0494-0.2598 0.082-0.1225 0.0327-0.2372 0.0488-0.3515 0.0488-0.1879 0-0.336-0.0256-0.4258-0.0664-0.098-0.049-0.1717-0.11292-0.2207-0.21094-0.057-0.10619-0.09-0.21342-0.098-0.33594-0.01-0.12252-0.016-0.28568-0.016-0.49805v-1.8457h1.4043v-0.57226h-1.4043v-1.1602zm-34.494 1.0547c-0.57176 0-1.0303 0.18836-1.3652 0.57226-0.33489 0.38391-0.50586 0.89697-0.50586 1.5586 0 0.66161 0.17097 1.1766 0.50586 1.5605s0.79347 0.57227 1.3652 0.57227c0.56361 0 1.0206-0.18837 1.3555-0.57227 0.3349-0.3839 0.50586-0.89893 0.50586-1.5605 0-0.65346-0.17096-1.1747-0.50586-1.5586-0.33489-0.3839-0.79186-0.57226-1.3555-0.57226zm16.189 8e-3c-0.2451 0-0.4744 0.0485-0.7031 0.14648-0.2287 0.098-0.4498 0.23667-0.6621 0.40821v-0.44922h-0.6778v4.0449h0.6778v-3.0234c0.1797-0.13886 0.3758-0.26171 0.58-0.35156 0.1961-0.0898 0.3922-0.13867 0.5801-0.13867 0.1797 0 0.3271 0.0252 0.4414 0.0742 0.1144 0.049 0.2046 0.13049 0.2617 0.22851 0.057 0.0898 0.097 0.2214 0.1211 0.38477 0.024 0.16336 0.033 0.33362 0.033 0.52148v2.3047h0.6878v-2.623c0-0.49009-0.1131-0.87338-0.3418-1.1348s-0.555-0.39258-0.9961-0.39258zm4.4512 0c-0.2451 0-0.4654 0.0485-0.6778 0.14648-0.2123 0.098-0.4263 0.23667-0.6386 0.40821v-0.44922h-0.6778v4.0449h0.6778v-3.0234c0.1797-0.13886 0.3687-0.26171 0.5566-0.35156 0.1797-0.0898 0.3668-0.13867 0.5547-0.13867 0.196 0 0.343 0.033 0.4492 0.082 0.098 0.0572 0.1811 0.13014 0.2383 0.23633 0.049 0.098 0.081 0.2214 0.098 0.38476 0.016 0.15519 0.024 0.32616 0.024 0.50586v2.3047h0.6777v-2.5898c0-0.0735 4e-4 -0.1472-0.01-0.22071 0-0.0735-0.01-0.13814-0.016-0.19531 0.1878-0.1552 0.3844-0.27112 0.5722-0.36914 0.1879-0.0898 0.3825-0.13867 0.5703-0.13867 0.1961 0 0.3431 0.0248 0.4493 0.082 0.098 0.0572 0.1811 0.13014 0.2383 0.23633 0.049 0.0898 0.081 0.2214 0.098 0.38476 0.016 0.16336 0.023 0.33433 0.023 0.50586v2.3047h0.6958v-2.623c0-0.48192-0.106-0.8574-0.3184-1.127s-0.5394-0.40039-0.9805-0.40039c-0.2532 0-0.4978 0.0501-0.7265 0.15625-0.2287 0.098-0.4743 0.26934-0.752 0.49805-0.09-0.20421-0.2379-0.36807-0.4258-0.48243-0.196-0.11435-0.4234-0.17187-0.7011-0.17187zm11.394 0c-0.2451 0-0.4744 0.0485-0.7031 0.14648-0.2287 0.098-0.4498 0.23667-0.6621 0.40821v-0.44922h-0.6778v4.0449h0.6778v-3.0234c0.1797-0.13886 0.3758-0.26171 0.58-0.35156 0.2042-0.0898 0.3922-0.13867 0.5801-0.13867 0.1797 0 0.3271 0.0252 0.4414 0.0742 0.1144 0.049 0.2046 0.13049 0.2617 0.22851 0.057 0.0898 0.099 0.2214 0.1231 0.38477 0.024 0.16336 0.031 0.33362 0.031 0.52148v2.3047h0.6897v-2.623c0-0.49009-0.115-0.87338-0.3437-1.1348s-0.5632-0.39258-0.9961-0.39258zm-23.639 8e-3c-0.5881 0-1.0625 0.18801-1.4219 0.58008s-0.539 0.91455-0.539 1.5762 0.1887 1.1855 0.5644 1.5449c0.3758 0.36757 0.8986 0.54688 1.5684 0.54688 0.2614 0 0.5131-0.0323 0.75-0.0977 0.2369-0.0653 0.4744-0.14807 0.7031-0.24609v-0.74219h-0.033c-0.1225 0.10619-0.318 0.21999-0.5957 0.32617-0.2777 0.10619-0.5543 0.16407-0.832 0.16407-0.2124 0-0.4008-0.0327-0.5723-0.0898-0.1715-0.0572-0.3267-0.14736-0.4492-0.26172-0.1307-0.12252-0.237-0.26916-0.3105-0.45703-0.074-0.18787-0.1153-0.40925-0.1153-0.6543h2.9824v-0.35156c0-0.5881-0.1473-1.0369-0.4414-1.3555-0.294-0.31856-0.7105-0.48242-1.2578-0.48242zm18.975 0c-0.5881 0-1.0625 0.18801-1.4218 0.58008-0.3594 0.39207-0.5391 0.91455-0.5391 1.5762s0.1887 1.1855 0.5644 1.5449c0.3758 0.36757 0.8986 0.54688 1.5684 0.54688 0.2614 0 0.5131-0.0323 0.75-0.0977 0.2369-0.0653 0.4744-0.14807 0.7031-0.24609v-0.74219h-0.033c-0.1225 0.10619-0.318 0.21999-0.5957 0.32617-0.2777 0.10619-0.5543 0.16407-0.832 0.16407-0.2124 0-0.4007-0.0327-0.5723-0.0898-0.1715-0.0572-0.3267-0.14736-0.4492-0.26172-0.1307-0.12252-0.237-0.26916-0.3105-0.45703-0.074-0.18787-0.1153-0.40925-0.1153-0.6543h2.9824v-0.35156c0-0.5881-0.1473-1.0369-0.4414-1.3555-0.294-0.31856-0.7105-0.48242-1.2578-0.48242zm-25.199 0.0898 1.625 4.0527h0.6875l1.6328-4.0527h-0.7109l-1.2402 3.2266-1.2578-3.2266zm8.8457 8e-3v4.0449h0.6875v-2.875c0.1797-0.14703 0.3665-0.26953 0.5625-0.35938 0.1879-0.0898 0.3931-0.14062 0.6055-0.14062 0.1307 0 0.2359 9e-3 0.334 0.0176 0.098 8e-3 0.1969 0.0243 0.2949 0.0488h0.041v-0.69532c-0.1062-0.0163-0.1811-0.0231-0.2383-0.0312-0.057-8e-3 -0.1392-0.01-0.2617-0.01-0.2124 0-0.4247 0.0508-0.6289 0.14062-0.2124 0.0899-0.4492 0.23649-0.7188 0.45703v-0.59765zm-2.6621 0.4414c0.3594 0 0.6289 0.0989 0.8086 0.29493 0.1782 0.1944 0.2661 0.46915 0.2676 0.82421h-2.3184c0.033-0.31855 0.1548-0.5884 0.3672-0.80078 0.2205-0.21237 0.5074-0.31836 0.875-0.31836zm18.975 0c0.3594 0 0.6289 0.0989 0.8086 0.29493 0.1782 0.1944 0.2661 0.46915 0.2676 0.82421h-2.3184c0.033-0.31855 0.1548-0.5884 0.3672-0.80078 0.2206-0.21237 0.5074-0.31836 0.875-0.31836zm-27.34 0.0254c0.36757 0 0.65517 0.12961 0.85937 0.38282 0.20421 0.25321 0.31055 0.6452 0.31055 1.168 0 0.51459-0.10634 0.89913-0.31055 1.1523-0.2042 0.26138-0.49021 0.39258-0.84961 0.39258-0.36756 0-0.65322-0.1312-0.85742-0.39258s-0.31054-0.64592-0.31054-1.1523c0-0.52277 0.0966-0.91476 0.30078-1.168 0.2042-0.25321 0.48985-0.38282 0.85742-0.38282z"/>
   </g>
  </g>
 </g>
 <path d="m268.1 194.38-0.22429 0.58807 0.0408 0.5925 8.3e-4 0.47062 0.17478-0.0118 0.31734-0.20103 0.0601-0.4147-0.13552-0.88091-0.23401-0.14276zm9.087 0.43055-0.1952 0.2383-0.10798 0.35812 0.11876 0.30627 0.23777 0.22887 0.20692 0.50415 0.27202 3e-3 0.20893-0.0627-0.0532-0.31798-0.13427-0.56062-0.51828-0.63149-0.0355-0.0656zm0.87813 1.7698-0.27542 0.0786-0.3064 0.0897-0.18069 0.22987 0.28403 0.0541 0.34361-0.0106 0.30004 0.0972 0.11934-0.17471-0.18531-0.20365zm-7.8184 0.28889-0.13653 0.17157 0.27507-0.0258zm-0.25077 0.042-0.15631 0.29118 0.12744 0.10552zm7.874 0.24275-0.33901 0.17279 0.25313 0.0544zm-7.5464 0.43704 0.0784 0.27215 0.034-0.1596zm-0.46597 0.0576-0.10503 0.23021 0.0493 0.3266-0.15417 0.29315-0.0237 0.31871 0.12594 0.45018 0.10769 0.40613 0.12778 0.42696 0.29102 0.65302 0.22624 0.36257 0.32696 0.42867 0.25254 0.60805 0.0508 0.26685 0.1117-0.13829 0.12139 0.33776 0.26412 0.31583 0.0721 0.10635-0.12397 0.37637-0.18874-0.45401-0.24743-0.27739-0.18265-0.23007 8e-3 0.21573 0.0511 0.34815 0.0377 0.28813 0.10804 0.27769-0.0334 0.16882 0.19988 0.19172 0.10853 0.39166 0.13991 0.33364 0.26986 0.17916 0.15967 0.2702 0.16971 0.21777 0.1439 0.26055 0.0808 0.21272 0.18605-0.097-0.0357-0.0797 0.0797-0.0667 0.0366 0.21263 0.14439 0.13378 0.1089-0.0334 0.23879-5e-3 0.11469 0.17934-0.15672 0.01-0.0995-0.10557-0.0951 0.0323-0.17458 0.01-0.16515 0.0414 0.20066 0.21619 0.0495 0.34091 0.20113-0.11831 0.16454 0.0531 0.18561-0.0316 0.31546 0.0273 0.33656-0.0446 0.0746 0.11105 0.22657 0.19593 0.30892-0.0197 0.18632-0.0348-0.0435-0.13314 0.0673-0.0928 0.0665-0.16665 0.0156-0.0889-0.0302-0.0446 0.15299-0.0384-0.02-0.24895 0.14343-0.0602-0.15374-0.33069-0.0511-0.23548 0.0155 0.15978 0.21748-0.0525 0.025 0.14731 0.15045 0.17298 0.18927-0.31615 0.0691-0.18013 0.0298-0.31976 0.17502-0.29185-0.12242-0.26049-0.11196-0.12193-0.0531-0.14167 0.23232 0.30597 0.15398 0.14192 0.16928 0.0897-0.0208 0.24594-0.17561-0.0695 0.22301 0.13315 0.13308-0.12584-0.0285-0.0619 0.13722-0.38467-0.36323-0.14548 0.13029 0.041 0.15007 4.2e-4 0.10747 0.21595 0.07 0.0469 0.21354 0.0397 0.18721 0.12259 8e-3 0.0827 0.12399 0.17671-0.13405 0.1154-0.15756-0.0827-0.0837-0.23403-0.19188 0.1999 0.13594 0.24466 0.11564 0.0302-0.0206 0.25109 0.19585 0.0468 0.12352-0.0796-0.0273-0.19978 0.21037 0.28162 0.1204-0.21407-0.084-0.16634 0.0146-0.31421-0.0269-0.3091-0.15026-0.0954-0.11496 0.11922 0.0285-0.15379 0.2082-0.39652 2e-3 -0.30656-0.0725-0.22763 0.0952 0.0137 0.0947-0.31337-0.0221-0.34944-0.0399 0.027 0.18911-0.41348 0.29758-0.32658-0.0737-0.0872 0.0449-0.18994 0.0832-0.14611 0.028 0.21384-0.0147 0.14738 0.15644 0.32408-6e-3 0.22492 0.10892-0.0519-7e-3 -0.25527-0.0932-0.34715 0.0506-0.44947-5e-3 -0.43567 0.04-0.38216-0.15775-0.41485 0.0577-0.15618 0.14481-0.47328-0.13731-7e-3 0.0857-0.0772-0.083-0.26014-0.0481-0.37978 0.18955-0.18047-0.27186-0.43159-0.43497-0.27967-0.17032 0.0286-0.44453 0.31123-0.39652 8.4e-4 -0.44857 0.35295-0.32978-0.0637-0.33004 0.10318-0.49441 0.0747-0.13101 0.26678 0.31672 0.25522-0.0159 0.1323 0.23284 0.29904-0.0371 0.0482-0.22276-0.2749-0.15633-0.3281-0.13929-0.0196-0.0308-0.0886-0.3206-0.0616-0.17791 0.22821 0.0228 0.14976-0.0928-0.14417-0.40844-4e-3 -0.0411 0.10931-0.23727-0.0908-0.28475-0.0474-0.14166-0.18229-0.3464-0.15417-0.42551-0.26196-0.41917-0.2048-0.20661-0.0511-0.29011-0.11898-0.0211-0.23566-0.1169-0.0598-0.22078 0.22303-0.20927-0.0179-0.15387-0.14295-0.30383-0.0672-0.2362-0.082-0.0955-0.23479zm8.0328 5.0646 0.14292 0.093zm-0.41315 0.85571-0.11328 0.30049 0.0707 0.17398 0.12808-0.19573zm-1.64 1.5073 0.014 0.15263-0.16708 0.17468 0.20489 0.13117-0.17614 0.17862-0.1503 0.28343-0.13703 0.17279-0.0831 0.0547 0.0857 0.15286 0.1306-0.17688 0.027 0.17901 0.2352-0.18213-0.0582-0.37724 0.20438-0.37025-0.0977-0.34135z" fill-rule="evenodd"/>
 <style type="text/css">.st0{fill:#231815;}
	.st1{fill:#CABB15;}
	.st2{fill:#004C94;}</style>
</svg>
